<svg version="1" xmlns="http://www.w3.org/2000/svg" width="2100" height="2100" viewBox="0 0 1575.000000 1575.000000"><path d="M558 .7c-1.9.2-45.1.4-96 .6-70 .2-93.2.6-95.4 1.5-5 2.2-14.2 12.5-18.2 20.6-3.5 7.2-3.7 8.1-3.9 18.3-.4 17 3 26.8 12.5 36.3 3 3.1 7.5 6.6 10 7.7 4.5 2.2 4.6 2.2 116.5 2.8 135.5.8 130.5.8 130.5 2 0 .6-4.5 8.9-10.1 18.5-12.7 21.9-13.3 23-16.1 27.7-1.3 2.1-2.8 4.8-3.5 5.8-1.1 1.9-45.8 76.1-62.8 104.3-4.4 7.3-8.7 14.5-9.6 16-4.7 7.9-72.5 120.3-87.6 145.2-9.6 15.8-14.5 23.9-19.8 32.8-.5 1-2.1 3.5-3.5 5.7s-3.2 5.2-4 6.6c-.8 1.4-7.3 12.2-14.5 23.8-14.3 23.2-13.9 22.7-21.6 35.6l-5.4 9.1.2 16.4c.1 9.1.2 16.9.2 17.5.1.7 63.2 1 187.4 1h187.2l4-2.4c10.8-6.5 16.7-13.6 20.6-24.7 2.9-8.3 3.5-20.3 1.5-28.4-3.6-14-9.3-22.3-19.9-28.7l-6.1-3.7-111.5-.3c-61.4-.2-114.1-.5-117.1-.7-3-.2-6.5-.4-7.8-.5-2.3-.1-2.3-.1.8-4.5 1.6-2.5 3-4.6 3-4.8 0-.3 15.5-26.1 56.7-94.6 8.7-14.4 16.3-27.1 16.8-28 .6-1 2.3-4 4-6.7 1.6-2.8 3.4-5.8 4-6.8.5-.9 7.6-12.6 15.6-26C612 267.8 688 141.7 692 135c6.2-10.3 17.4-28.7 19.5-32 1.2-1.9 8.7-14.1 16.5-27 7.9-12.9 15-24.3 15.8-25.3 1.3-1.4 1.5-5.7 1.6-24.6.1-12.7-.1-23.6-.4-24.3-.4-1.1-16.6-1.3-92-1.3-50.3 0-93.1.1-95 .2zM801.3 220.5c-13.3 4.8-22.6 13.8-27.7 26.8-11.2 28.3 9.1 60.3 39.4 62.2 30.8 1.8 54.7-26.9 47.2-57-6.3-25.4-34.7-40.8-58.9-32zM1111.8 316.5c-.2.1-4.1.6-8.8 1-31.7 2.5-67.4 15.7-95.9 35.2-5.8 4-10.7 7-10.9 6.8-.2-.2-.4-6.1-.6-13.2l-.1-12.8-44.6-.3-44.6-.2v556H995.6l.1-81.8c.1-81.8.5-127.2 1.2-127.2.2 0 2 1.3 4 2.9 8.8 7 31.2 19.6 43.6 24.6 3.9 1.5 8.4 3.3 10 4 5.4 2.3 19.8 6.3 30.5 8.6 8.9 1.9 14.1 2.3 33.5 2.4 14.9.2 26.5-.2 33-1.1 34.3-4.7 67.9-18.7 96-40.3 19.9-15.2 39.5-37.4 51.8-58.6 8.2-14.3 19.1-40.6 21.1-51.1.3-1.6 1-4.8 1.6-7.2 1-4.3 1.3-5.9 3.5-19.7 2.7-16.7.7-51.4-4.2-72-8.8-37.3-26.5-68.6-54.4-96.5-29.5-29.5-71.5-51.1-109.7-56.6-2-.2-4.8-.7-6.2-.9-7.5-1.3-38.2-2.9-39.2-2zm31.2 92c28.8 4.2 56.7 22 73.8 47.3 4.7 6.8 12.2 21.3 12.2 23.4 0 .8.4 1.8.9 2.4.4.5 1.6 3.8 2.6 7.4 5.1 18.8 5.4 40.1.9 58.5-6.7 26.8-23.9 51.1-47.4 66.7-12.8 8.5-30.5 16-41.5 17.5-8.1 1.1-38.5.7-45-.6-21.9-4.5-45.6-18.3-60.4-35.1-28.2-31.9-36.5-73.1-23-114 10-30.4 38.9-59.1 70.4-69.6 11.9-4 19.8-5.2 33-5.2 7.7 0 18.3.6 23.5 1.3zM773 515.1V701h90.6l-.1-185.8V329.5l-45.2-.2-45.3-.2v186zM468.7 583.7c-.1.1-67.7.3-150.2.6-99.5.4-151.1.9-153.3 1.6-16.3 5-27.6 23.2-27.1 43.8.4 18.7 9.7 34.9 24 42 4.4 2.2 4.8 2.2 62.4 2.3 58.2.1 171.8 1 178.7 1.3 2 .2 4 .6 4.4.9.3.4-3.3 7.4-8.2 15.5-4.9 8.1-9.4 15.7-10 16.8-1.2 2.2-14.8 25.1-16.4 27.5-.5.8-3.9 6.4-7.5 12.5-3.6 6-7.1 11.9-7.8 13-.7 1.1-2.6 4.2-4.3 7-1.6 2.7-3.3 5.7-3.7 6.5-.4.8-2.5 4.4-4.8 8-2.3 3.6-4.9 7.8-5.9 9.5-3 5.3-36.5 60.9-79 131.5-22.7 37.7-43.1 71.4-45.2 75-2.1 3.6-8.4 13.9-13.9 23-5.6 9.1-11 18.1-12.1 20-1.1 1.9-2.6 4.2-3.4 5.1-.8.8-1.4 1.9-1.4 2.3 0 .4-1.3 2.6-2.9 5-1.6 2.3-9.1 14.3-16.7 26.7l-13.7 22.4-.2 19.2c-.1 16.8.1 19.3 1.5 19.4 6.4.3 345.8-.1 357.3-.5 8.2-.3 16.5-1 18.5-1.7 10.6-3.5 20.3-15.2 24.2-29.4 1.4-5.1 1.9-19.1.7-23.5-4.2-17-14.9-30.3-26.1-32.6-4.8-1-33.2-1.3-133.3-1.5-57.9 0-105.3-.3-105.3-.5 0-.9 12.5-21.9 13.2-22.2.5-.2.8-.7.8-1.2s3.7-7.1 8.3-14.7c10.1-16.7 57.8-96.2 65.3-108.8 3-5 5.8-9.7 6.3-10.5.5-.8 6.8-11.2 13.9-23C465.5 756.2 507.1 687.3 518 670c4.3-6.9 11.3-18.2 15.4-25.2L541 632v-48l-3.2-.1c-11.5-.1-69-.4-69.1-.2zM750 891.6c-31.3 3.7-65.9 16.9-91.2 34.9-17.7 12.7-42.7 38.7-54.5 56.8-11.3 17.2-22 42.4-26.8 62.7-4.1 17.2-5 26.5-4.9 50 .1 26.5 3.2 44.2 11.9 67.6 7 18.8 14.4 32.6 25.9 48.4 7.6 10.5 8.6 11.6 19.8 23.4 27.6 29.2 68.7 51.5 107.3 58.1 1.7.2 3.9.7 5 .9 10.5 2 41.5 2.8 55.6 1.3 31.9-3.3 64.2-15.4 93.2-34.8l11.7-7.9.1 6.8c.1 6.8.6 20.8.8 22.7.1.7 14.7 1.1 45.1 1.1 39.7 0 45-.2 45.1-1.6 0-.8.1-84.5.1-185.9l.1-184.5h-44.7c-28.8-.1-45 .3-45.5.9-.4.5-.7 5.6-.6 11.2.1 6.9-.2 10-1 9.5-.5-.3-6.6-4.3-13.5-8.7-6.9-4.5-15.2-9.5-18.5-11.2-8.7-4.5-27.3-12.3-29.3-12.3-1 0-2.2-.4-2.8-.9-1.1-1.2-24.4-6.9-31-7.7-2.7-.3-5.3-.8-5.8-1.1-2-1.3-40.4-1-51.6.3zm46.1 90.4c28.5 4.9 55.1 21.9 72.1 46 5.6 8 15 27.4 17.1 35.5 2.2 8.6 2.8 14.9 2.8 32.5 0 17-.2 18.2-3.2 28.5-5.5 18.6-14.7 34-28.7 48.1-18.4 18.5-42.5 30.7-65.2 33.2-7.3.8-24.1.7-31.2-.1-23.4-2.7-48-15.3-65.7-33.5-20.1-20.8-31.1-47.2-31.6-76.4-.2-10.1.3-15.5 2.8-29 .9-4.7 5.8-18.1 8.9-24.2 11.6-23 30.3-40.9 54.3-52.2 7.9-3.7 22.9-8.5 30.5-9.7 4.6-.7 30.6.1 37.1 1.3z"/><path d="M1203 890.3c-.3.3-3.9.7-8 1.1-14.2 1.2-32.4 5.5-48.6 11.5-40.7 15-77.1 44.7-101.2 82.6-13.8 21.8-26.6 57.1-29 79.9-.9 9.2-.9 49.3.1 57.4 3.8 31.9 20.5 70 42.8 97.7 5.7 7 18.2 20.1 26.5 27.6 4.9 4.4 21.5 16.3 29.5 21.2 18.8 11.3 46.2 21.7 64 24.2 2.4.3 5.1.8 5.9 1 5.5 1.5 44.7 2.2 58 1 26.7-2.3 63.2-16.1 89.5-33.7 6.1-4.1 11.6-7.8 12.4-8.2 1.2-.8 1.3 5 .8 38-.4 21.4-.8 40-1.1 41.4-.7 3.8-2.8 16.9-2.8 17.7-.2 2.8-9.6 28.2-13.2 35.7-16.5 34.2-47.6 64.9-82.3 81.3-26.1 12.2-50.4 17.4-78.8 16.8-14.7-.4-16.9-.6-27-2.6-2.7-.5-6.1-1.1-7.4-1.4-19.6-3.7-49.5-17.6-67.6-31.4-13.3-10.1-32.6-31.2-42.4-46.1-11.6-17.7-21.8-46-24.7-68-.3-2.5-.8-5.4-.9-6.5-.2-1.1-.4-5.7-.4-10.1l-.1-8.2h-45.6l-45.5.1.6 12.6c.4 6.9.8 13.7 1 15.1.2 1.4.9 6.3 1.5 11 .6 4.6 1.3 8.7 1.5 9 .2.3.6 2.3.9 4.5.4 2.2 1.4 6.7 2.2 10 .9 3.3 1.7 6.7 1.9 7.6.7 3.4 4.5 14.9 8.3 24.9 16.2 43 45 82.6 81.2 111.5 8 6.4 19.4 14.5 25.1 18 34.8 20.9 66.8 32.7 102.9 37.9 18.9 2.7 59.3 2.8 77.5.1 18.7-2.8 46.5-10.3 59.2-16.1 1.7-.8 3.3-1.4 3.6-1.4 1.2 0 20.8-9.8 28.7-14.3 31.8-18.2 61.5-44.5 81.8-72.2 2.9-3.9 5.6-7.5 6.2-8.2.5-.7 1-1.4 1-1.6 0-.2 2.5-4.1 5.5-8.7 3-4.5 8.6-14.6 12.4-22.4 9.5-19.2 14.1-31.8 20.5-56.6 4.5-17.6 5.4-25 6.1-50.5.3-9.4.7-105.2 1-213l.6-196-44.6.1c-26.6 0-44.9.4-45.5 1-.5.5-1 5.5-1.1 11.1-.1 7.4-.5 10.1-1.3 9.6-.6-.4-5.8-3.9-11.6-7.9-12.4-8.4-23.7-14.5-37.5-20.1-10.7-4.4-24.5-8.9-29.8-9.8-1.7-.3-4.9-1-6.9-1.6-2.1-.5-6.1-1.2-9-1.5-2.9-.3-6-.7-6.8-1-1.9-.7-39.4-1.6-40-1.1zm36 91.7c24.4 4 51.7 20.3 67.3 40.3 1.2 1.5 3 3.8 4 5 3.4 4 9.6 15.4 12.8 23.3 4.1 10.2 5.5 15.8 7.5 29.4.7 4.9.6 21.8-.1 27.6-5.3 41.2-32.3 76.1-70.6 91.2-6.5 2.6-13.4 4.6-14.1 4.2-.2-.1-1.6.4-3.2 1-6.2 2.3-29.8 3.3-41.2 1.7-54.8-7.7-96.4-55.5-96.7-111.2-.1-15.5.8-22 5.5-36.5 10.7-33.3 38.1-60.8 71.8-71.8 16.1-5.3 20.8-6.1 35.5-5.7 7.7.1 17.4.8 21.5 1.5z"/></svg>